#!OML:ASF I:\Actors\actors\Patient Classification 2\Patient 1\Session 1\actor1.ASF
:FULLY-SPECIFIED
:DEGREES
114
root -0.803017 16.899 2.1591 -2.52408 -1.717 0.440173
lowerback 7.85081 0.411079 -2.1264
upperback -1.24519 0.35197 0.241457
thorax -5.72281 0.247364 1.40311
lowerneck -12.8104 -2.67606 -2.65867
upperneck 25.8702 -4.09646 3.36059
head 10.5224 -1.75249 1.12527
rclavicle -3.27679e-015 -8.60365e-016
rhumerus 37.1543 14.3647 -63.8455
rradius 44.5591
rwrist 19.3759
rhand 28.651 -41.1694
rfingers 7.12502
rthumb 52.4901 -60.9793
lclavicle -3.27679e-015 -8.60365e-016
lhumerus 36.7211 -14.7186 66.7904
lradius 47.2733
lwrist -9.48748
lhand 33.4637 -17.6216
lfingers 7.12502
lthumb 56.7911 -0.862858
rfemur -17.7431 -5.62788 11.3298
rtibia 57.6479
rfoot -32.9662 2.98846
rtoes -24.0822
lfemur -21.4941 7.01933 -12.4636
ltibia 60.1176
lfoot -31.9103 -0.135087
ltoes -57.0984
115
root -0.804415 16.8985 2.16189 -2.51566 -1.71716 0.467332
lowerback 7.78423 0.420421 -2.12286
upperback -1.20871 0.3656 0.221725
thorax -5.64699 0.252529 1.37911
lowerneck -12.8528 -2.67901 -2.71359
upperneck 25.8759 -4.09805 3.40339
head 10.5351 -1.75286 1.14922
rclavicle 1.01905e-014 1.10854e-014
rhumerus 37.0662 14.4685 -63.5312
rradius 44.7562
rwrist 19.1188
rhand 28.6059 -41.2712
rfingers 7.12502
rthumb 52.4493 -61.1061
lclavicle 1.01905e-014 1.10854e-014
lhumerus 36.7901 -14.7352 66.7749
lradius 47.2681
lwrist -9.5026
lhand 33.3834 -17.6153
lfingers 7.12502
lthumb 56.7204 -0.798642
rfemur -17.7397 -5.62609 11.2993
rtibia 57.6546
rfoot -32.9691 3.04038
rtoes -23.9531
lfemur -21.4812 7.02007 -12.4891
ltibia 60.105
lfoot -31.9115 -0.142743
ltoes -57.0904
116
root -0.805784 16.8981 2.16398 -2.49596 -1.71602 0.451277
lowerback 7.75937 0.427925 -2.11989
upperback -1.20612 0.377313 0.236163
thorax -5.6307 0.258268 1.39112
lowerneck -12.8548 -2.67785 -2.77042
upperneck 25.8804 -4.09308 3.44221
head 10.5392 -1.75142 1.17341
rclavicle 2.55125e-015 1.00169e-015
rhumerus 37.0031 14.555 -63.3063
rradius 44.8468
rwrist 18.9007
rhand 28.2668 -41.094
rfingers 7.12502
rthumb 52.1422 -61.1148
lclavicle 2.55125e-015 1.00169e-015
lhumerus 36.8109 -14.745 66.8206
lradius 47.2439
lwrist -9.5153
lhand 33.3041 -17.6189
lfingers 7.12502
lthumb 56.6504 -0.745368
rfemur -17.7507 -5.62121 11.3238
rtibia 57.6521
rfoot -32.9596 3.08223
rtoes -23.7489
lfemur -21.4949 7.02436 -12.4653
ltibia 60.0981
lfoot -31.8832 -0.161238
ltoes -57.0606
117
root -0.806743 16.8989 2.16568 -2.50066 -1.71575 0.446308
lowerback 7.81544 0.432697 -2.14822
upperback -1.22486 0.380426 0.254538
thorax -5.68279 0.261738 1.42559
lowerneck -12.8502 -2.68197 -2.79972
upperneck 25.8903 -4.09767 3.46171
head 10.5433 -1.75406 1.18485
rclavicle 5.69104e-015 -8.23714e-015
rhumerus 36.9663 14.5706 -63.2847
rradius 44.8294
rwrist 18.8899
rhand 28.1083 -40.9039
rfingers 7.12502
rthumb 51.9984 -61.0105
lclavicle 5.69104e-015 -8.23714e-015
lhumerus 36.7667 -14.7398 66.9038
lradius 47.268
lwrist -9.50944
lhand 33.3745 -17.5997
lfingers 7.12502
lthumb 56.7125 -0.776685
rfemur -17.7352 -5.61758 11.3339
rtibia 57.6402
rfoot -32.9551 3.12682
rtoes -23.5139
lfemur -21.4832 7.03483 -12.4517
ltibia 60.0917
lfoot -31.89 -0.147896
ltoes -57.0708
118
root -0.807895 16.9007 2.16805 -2.53167 -1.71763 0.440668
lowerback 7.86755 0.437405 -2.17361
upperback -1.21039 0.383943 0.269547
thorax -5.69769 0.264584 1.45494
lowerneck -12.9099 -2.69219 -2.77223
upperneck 25.9274 -4.10826 3.42187
head 10.5675 -1.75986 1.16399
rclavicle -1.52884e-015 -1.3946e-015
rhumerus 36.9488 14.5496 -63.2899
rradius 44.8399
rwrist 18.9446
rhand 28.1366 -40.8398
rfingers 7.12502
rthumb 52.0241 -60.9311
lclavicle -1.52884e-015 -1.3946e-015
lhumerus 36.759 -14.7217 66.9629
lradius 47.3133
lwrist -9.4776
lhand 33.4688 -17.5999
lfingers 7.12502
lthumb 56.7956 -0.844849
rfemur -17.6826 -5.61985 11.3402
rtibia 57.6225
rfoot -32.9511 3.15973
rtoes -23.3609
lfemur -21.4311 7.05602 -12.4304
ltibia 60.0806
lfoot -31.9326 -0.17672
ltoes -57.1009
119
root -0.809529 16.9008 2.17043 -2.53902 -1.7304 0.415826
lowerback 7.86686 0.438071 -2.18075
upperback -1.18389 0.384865 0.277937
thorax -5.66961 0.264877 1.46765
lowerneck -12.984 -2.69056 -2.69326
upperneck 25.9655 -4.10653 3.35343
head 10.5927 -1.75818 1.12556
rclavicle -6.26162e-015 3.32343e-016
rhumerus 37.0332 14.4471 -63.4608
rradius 44.7359
rwrist 19.1302
rhand 28.1975 -40.79
rfingers 7.12502
rthumb 52.0794 -60.8484
lclavicle -6.26162e-015 3.32343e-016
lhumerus 36.7812 -14.7015 66.9455
lradius 47.3475
lwrist -9.42857
lhand 33.5218 -17.5927
lfingers 7.12502
lthumb 56.8422 -0.876021
rfemur -17.6604 -5.62384 11.3731
rtibia 57.6064
rfoot -32.9344 3.14683
rtoes -23.4659
lfemur -21.4043 7.09651 -12.3869
ltibia 60.074
lfoot -31.9418 -0.24551
ltoes -57.1168
